<svg width="700" height="320" viewBox="0 0 700 320" fill="none" xmlns="http://www.w3.org/2000/svg">
<g clip-path="url(#clip0_105_146)">
<mask id="mask0_105_146" style="mask-type:luminance" maskUnits="userSpaceOnUse" x="0" y="0" width="700" height="320">
<path d="M684 0H16C7.16344 0 0 7.16344 0 16V304C0 312.837 7.16344 320 16 320H684C692.837 320 700 312.837 700 304V16C700 7.16344 692.837 0 684 0Z" fill="white"/>
</mask>
<g mask="url(#mask0_105_146)">
<path d="M684 0H16C7.16344 0 0 7.16344 0 16V304C0 312.837 7.16344 320 16 320H684C692.837 320 700 312.837 700 304V16C700 7.16344 692.837 0 684 0Z" fill="url(#paint0_linear_105_146)"/>
<g opacity="0.8" filter="url(#filter0_f_105_146)">
</g>
<g opacity="0.8" filter="url(#filter1_f_105_146)">
<path d="M643 355C731.366 355 803 283.366 803 195C803 106.634 731.366 35 643 35C554.634 35 483 106.634 483 195C483 283.366 554.634 355 643 355Z" fill="#7A5ECF" fill-opacity="0.5"/>
</g>
<g style="mix-blend-mode:overlay" opacity="0.1">
<path d="M0 160H700" stroke="url(#paint1_linear_105_146)"/>
</g>
<g opacity="0.8" filter="url(#filter2_f_105_146)">
<path d="M99 307C187.366 307 259 235.366 259 147C259 58.6344 187.366 -13 99 -13C10.6344 -13 -61 58.6344 -61 147C-61 235.366 10.6344 307 99 307Z" fill="#29617D"/>
</g>
<g opacity="0.8" filter="url(#filter3_f_105_146)">
<path d="M483 75C571.366 75 643 3.36557 643 -85C643 -173.366 571.366 -245 483 -245C394.634 -245 323 -173.366 323 -85C323 3.36557 394.634 75 483 75Z" fill="#7FD4FF" fill-opacity="0.6"/>
</g>
<path opacity="0.3" fill-rule="evenodd" clip-rule="evenodd" d="M372.05 146.081C283.746 27.295 115.867 2.58437 -2.91917 90.8882C-121.705 179.192 -146.416 347.071 -58.1118 465.857L372.05 146.081Z" fill="url(#paint2_linear_105_146)"/>
<path opacity="0.66" fill-rule="evenodd" clip-rule="evenodd" d="M604.05 146.081C515.746 27.295 347.867 2.58437 229.081 90.8882C110.295 179.192 85.5844 347.071 173.888 465.857L604.05 146.081Z" fill="url(#paint3_linear_105_146)"/>
<path opacity="0.9" fill-rule="evenodd" clip-rule="evenodd" d="M863.05 146.081C774.746 27.295 606.867 2.58437 488.081 90.8882C369.295 179.192 344.584 347.071 432.888 465.857L863.05 146.081Z" fill="url(#paint4_linear_105_146)"/>
</g>
<path d="M221.882 177.369L241.577 177.729V188.623H205.113V177.729L227.509 154.86H205L205.113 143.605H241.577V154.5L221.882 177.369Z" fill="white"/>
<path d="M255.883 170.886C257.504 176.829 262.456 179.35 268.578 179.35C273.08 179.35 276.682 177.459 278.662 174.848L288.026 180.25C283.794 186.372 277.042 189.884 268.398 189.884C253.272 189.884 243.728 179.53 243.728 166.114C243.728 152.699 253.362 142.345 267.498 142.345C280.823 142.345 290.277 152.879 290.277 166.114C290.277 167.825 290.097 169.355 289.827 170.886H255.883ZM255.703 161.882H278.662C277.222 155.4 272.36 152.789 267.498 152.789C261.285 152.789 257.054 156.12 255.703 161.882Z" fill="white"/>
<path d="M318.952 143.605C327.393 143.605 335.834 149.007 335.834 160.982V188.623L324.58 188.623V163.301C324.58 157.178 321.214 153.453 314.732 153.453C311.918 153.453 305.948 155.467 305.948 163.301V188.623H294.334V143.605H305.948V146.419C310.511 143.605 312.92 143.605 318.952 143.605Z" fill="white"/>
<path d="M367.997 154.77H357.823V173.497C357.823 178.359 358.343 178.776 367.997 178.776V188.623C348.495 188.623 346.208 185.652 346.208 173.497V154.77H338.375V143.605H346.208V134.511L357.823 131V143.605H367.997V154.77Z" fill="white"/>
<path d="M404.941 143.605H416.556V188.623H404.941V183.311C401.7 187.363 396.838 189.884 390.265 189.884C378.29 189.884 368.386 179.53 368.386 166.114C368.386 152.699 378.29 142.345 390.265 142.345C396.838 142.345 401.7 144.866 404.941 148.917V143.605ZM392.426 178.809C399.629 178.809 404.941 173.677 404.941 166.114C404.941 158.551 399.629 153.419 392.426 153.419C385.313 153.419 380.001 158.551 380.001 166.114C380.001 173.677 385.313 178.809 392.426 178.809Z" fill="white"/>
<path d="M433.798 149.233C437.679 143.606 441.854 143.606 447.527 143.606V154.86C440.493 154.86 433.798 156.898 433.798 167.105V188.624H422.184V143.606H433.798V149.233Z" fill="white"/>
<path d="M483.621 143.605H495.236V188.623H483.621V183.311C480.38 187.363 475.518 189.884 468.945 189.884C456.97 189.884 447.066 179.53 447.066 166.114C447.066 152.699 456.97 142.345 468.945 142.345C475.518 142.345 480.38 143.774 483.621 147.826V143.605ZM471.106 178.809C478.309 178.809 483.621 173.677 483.621 166.114C483.621 158.551 478.309 153.419 471.106 153.419C463.993 153.419 458.681 158.551 458.681 166.114C458.681 173.677 463.993 178.809 471.106 178.809Z" fill="white"/>
</g>
<defs>
<filter id="filter0_f_105_146" x="26" y="80" width="800" height="800" filterUnits="userSpaceOnUse" color-interpolation-filters="sRGB">
<feFlood flood-opacity="0" result="BackgroundImageFix"/>
<feBlend mode="normal" in="SourceGraphic" in2="BackgroundImageFix" result="shape"/>
<feGaussianBlur stdDeviation="120" result="effect1_foregroundBlur_105_146"/>
</filter>
<filter id="filter1_f_105_146" x="243" y="-205" width="800" height="800" filterUnits="userSpaceOnUse" color-interpolation-filters="sRGB">
<feFlood flood-opacity="0" result="BackgroundImageFix"/>
<feBlend mode="normal" in="SourceGraphic" in2="BackgroundImageFix" result="shape"/>
<feGaussianBlur stdDeviation="120" result="effect1_foregroundBlur_105_146"/>
</filter>
<filter id="filter2_f_105_146" x="-301" y="-253" width="800" height="800" filterUnits="userSpaceOnUse" color-interpolation-filters="sRGB">
<feFlood flood-opacity="0" result="BackgroundImageFix"/>
<feBlend mode="normal" in="SourceGraphic" in2="BackgroundImageFix" result="shape"/>
<feGaussianBlur stdDeviation="120" result="effect1_foregroundBlur_105_146"/>
</filter>
<filter id="filter3_f_105_146" x="83" y="-485" width="800" height="800" filterUnits="userSpaceOnUse" color-interpolation-filters="sRGB">
<feFlood flood-opacity="0" result="BackgroundImageFix"/>
<feBlend mode="normal" in="SourceGraphic" in2="BackgroundImageFix" result="shape"/>
<feGaussianBlur stdDeviation="120" result="effect1_foregroundBlur_105_146"/>
</filter>
<linearGradient id="paint0_linear_105_146" x1="1.27814e-05" y1="320" x2="710.784" y2="26.0793" gradientUnits="userSpaceOnUse">
<stop stop-color="#EBF7FA" stop-opacity="0.09"/>
<stop offset="0.729167" stop-color="#006199" stop-opacity="0.08"/>
</linearGradient>
<linearGradient id="paint1_linear_105_146" x1="nan" y1="nan" x2="nan" y2="nan" gradientUnits="userSpaceOnUse">
<stop stop-color="white" stop-opacity="0.1"/>
<stop offset="0.5" stop-color="white"/>
<stop offset="1" stop-color="white" stop-opacity="0.1"/>
</linearGradient>
<linearGradient id="paint2_linear_105_146" x1="-2.91917" y1="90.8882" x2="316.857" y2="521.05" gradientUnits="userSpaceOnUse">
<stop stop-color="#ABE1FE"/>
<stop offset="0.5" stop-color="#3F7692" stop-opacity="0"/>
</linearGradient>
<linearGradient id="paint3_linear_105_146" x1="229.081" y1="90.8882" x2="548.857" y2="521.05" gradientUnits="userSpaceOnUse">
<stop stop-color="#ABE1FE"/>
<stop offset="0.5" stop-color="#3F7692" stop-opacity="0"/>
</linearGradient>
<linearGradient id="paint4_linear_105_146" x1="488.081" y1="90.8882" x2="807.857" y2="521.05" gradientUnits="userSpaceOnUse">
<stop stop-color="#ABE1FE"/>
<stop offset="0.5" stop-color="#3F7692" stop-opacity="0"/>
</linearGradient>
<clipPath id="clip0_105_146">
<rect width="700" height="320" fill="white"/>
</clipPath>
</defs>
</svg>
