<svg width="126" height="22" viewBox="0 0 126 22" fill="none" xmlns="http://www.w3.org/2000/svg">
<path d="M28.5 17L35.5 17.128V21H22.54V17.128L30.5 9H22.5L22.54 5H35.5V8.872L28.5 17Z" fill="white"/>
<path d="M40.5845 14.696C41.1605 16.808 42.9205 17.704 45.0965 17.704C46.6965 17.704 47.9765 17.032 48.6805 16.104L52.0085 18.024C50.5045 20.2 48.1045 21.448 45.0325 21.448C39.6565 21.448 36.2645 17.768 36.2645 13C36.2645 8.23199 39.6885 4.55199 44.7125 4.55199C49.4485 4.55199 52.8085 8.29599 52.8085 13C52.8085 13.608 52.7445 14.152 52.6485 14.696H40.5845ZM40.5205 11.496H48.6805C48.1685 9.19199 46.4405 8.26399 44.7125 8.26399C42.5045 8.26399 41.0005 9.44799 40.5205 11.496Z" fill="white"/>
<path d="M63 4.99999C66 4.99999 69 6.92 69 11.176V21L65 21V12C65 9.824 63.804 8.5 61.5 8.5C60.5 8.5 58.3782 9.216 58.3782 12V21H54.2502V4.99999H58.3782V6C60 5 60.856 4.99999 63 4.99999Z" fill="white"/>
<path d="M80.431 8.96799H76.815V15.624C76.815 17.352 77 17.5 80.431 17.5V21C73.5 21 72.687 19.944 72.687 15.624V8.96799H69.903V4.99999H72.687V1.76799L76.815 0.519989V4.99999H80.431V8.96799Z" fill="white"/>
<path d="M93.5615 4.99999H97.6895V21H93.5615V19.112C92.4095 20.552 90.6815 21.448 88.3455 21.448C84.0895 21.448 80.5695 17.768 80.5695 13C80.5695 8.23199 84.0895 4.55199 88.3455 4.55199C90.6815 4.55199 92.4095 5.44799 93.5615 6.88799V4.99999ZM89.1135 17.512C91.6735 17.512 93.5615 15.688 93.5615 13C93.5615 10.312 91.6735 8.48799 89.1135 8.48799C86.5855 8.48799 84.6975 10.312 84.6975 13C84.6975 15.688 86.5855 17.512 89.1135 17.512Z" fill="white"/>
<path d="M103.818 7.00026C105.197 5.00026 106.681 5.00026 108.697 5.00026V9.00026C106.197 9.00026 103.818 9.72446 103.818 13.3523V21.0003H99.6897V5.00025H103.818V7.00026Z" fill="white"/>
<path d="M121.525 4.99999H125.653V21H121.525V19.112C120.373 20.552 118.645 21.448 116.309 21.448C112.053 21.448 108.533 17.768 108.533 13C108.533 8.23199 112.053 4.55199 116.309 4.55199C118.645 4.55199 120.373 5.06 121.525 6.5V4.99999ZM117.077 17.512C119.637 17.512 121.525 15.688 121.525 13C121.525 10.312 119.637 8.48799 117.077 8.48799C114.549 8.48799 112.661 10.312 112.661 13C112.661 15.688 114.549 17.512 117.077 17.512Z" fill="white"/>
<path d="M0.136942 6.76676C0.369 6.298 0.861245 6 1.40623 6H16.5955C17.1405 6 17.6327 6.298 17.8648 6.76676C18.0969 7.23553 18.0265 7.788 17.682 8.1898L11.2511 15.6733V19.929C11.2511 20.3341 11.012 20.7058 10.6288 20.8866C10.2455 21.0674 9.79198 21.0306 9.45092 20.7862L7.20066 19.179C6.91586 18.9781 6.75061 18.66 6.75061 18.3218V15.6733L0.31626 8.18645C-0.024796 7.788 -0.0986328 7.23218 0.136942 6.76676Z" fill="url(#paint0_linear_104_162)"/>
<defs>
<linearGradient id="paint0_linear_104_162" x1="9" y1="6" x2="9" y2="21" gradientUnits="userSpaceOnUse">
<stop stop-color="#87D7FF"/>
<stop offset="1" stop-color="#003B59"/>
</linearGradient>
</defs>
</svg>
