<svg width="126" height="21" viewBox="0 0 126 21" fill="none" xmlns="http://www.w3.org/2000/svg">
<path d="M28.5 16.48L35.5 16.608V20.48H22.54V16.608L30.5 8.48001H22.5L22.54 4.48001H35.5V8.35201L28.5 16.48Z" fill="black"/>
<path d="M40.5845 14.176C41.1605 16.288 42.9205 17.184 45.0965 17.184C46.6965 17.184 47.9765 16.512 48.6805 15.584L52.0085 17.504C50.5045 19.68 48.1045 20.928 45.0325 20.928C39.6565 20.928 36.2645 17.248 36.2645 12.48C36.2645 7.712 39.6885 4.032 44.7125 4.032C49.4485 4.032 52.8085 7.776 52.8085 12.48C52.8085 13.088 52.7445 13.632 52.6485 14.176H40.5845ZM40.5205 10.976H48.6805C48.1685 8.672 46.4405 7.744 44.7125 7.744C42.5045 7.744 41.0005 8.928 40.5205 10.976Z" fill="black"/>
<path d="M63 4.48C66 4.48 69 6.40001 69 10.656V20.48L65 20.48V11.48C65 9.30401 63.804 7.98001 61.5 7.98001C60.5 7.98001 58.3782 8.69601 58.3782 11.48V20.48H54.2502V4.48H58.3782V5.48001C60 4.48001 60.856 4.48 63 4.48Z" fill="black"/>
<path d="M80.431 8.448H76.815V15.104C76.815 16.832 77 16.98 80.431 16.98V20.48C73.5 20.48 72.687 19.424 72.687 15.104V8.448H69.903V4.48H72.687V1.248L76.815 0V4.48H80.431V8.448Z" fill="black"/>
<path d="M93.5615 4.48H97.6895V20.48H93.5615V18.592C92.4095 20.032 90.6815 20.928 88.3455 20.928C84.0895 20.928 80.5695 17.248 80.5695 12.48C80.5695 7.712 84.0895 4.032 88.3455 4.032C90.6815 4.032 92.4095 4.928 93.5615 6.368V4.48ZM89.1135 16.992C91.6735 16.992 93.5615 15.168 93.5615 12.48C93.5615 9.792 91.6735 7.968 89.1135 7.968C86.5855 7.968 84.6975 9.792 84.6975 12.48C84.6975 15.168 86.5855 16.992 89.1135 16.992Z" fill="black"/>
<path d="M103.818 6.48027C105.197 4.48027 106.681 4.48027 108.697 4.48027V8.48027C106.197 8.48027 103.818 9.20447 103.818 12.8323V20.4803H99.6897V4.48026H103.818V6.48027Z" fill="black"/>
<path d="M121.525 4.48H125.653V20.48H121.525V18.592C120.373 20.032 118.645 20.928 116.309 20.928C112.053 20.928 108.533 17.248 108.533 12.48C108.533 7.712 112.053 4.032 116.309 4.032C118.645 4.032 120.373 4.54001 121.525 5.98001V4.48ZM117.077 16.992C119.637 16.992 121.525 15.168 121.525 12.48C121.525 9.792 119.637 7.968 117.077 7.968C114.549 7.968 112.661 9.792 112.661 12.48C112.661 15.168 114.549 16.992 117.077 16.992Z" fill="black"/>
<path d="M0.136942 6.24678C0.369 5.77801 0.861245 5.48001 1.40623 5.48001H16.5955C17.1405 5.48001 17.6327 5.77801 17.8648 6.24678C18.0969 6.71554 18.0265 7.26801 17.682 7.66981L11.2511 15.1533V19.409C11.2511 19.8141 11.012 20.1858 10.6288 20.3666C10.2455 20.5474 9.79198 20.5106 9.45092 20.2662L7.20066 18.659C6.91586 18.4581 6.75061 18.14 6.75061 17.8018V15.1533L0.31626 7.66646C-0.024796 7.26801 -0.0986328 6.71219 0.136942 6.24678Z" fill="url(#paint0_linear_104_163)"/>
<defs>
<linearGradient id="paint0_linear_104_163" x1="9" y1="5.48001" x2="9" y2="20.48" gradientUnits="userSpaceOnUse">
<stop stop-color="#57C7FF"/>
<stop offset="1" stop-color="#003B59"/>
</linearGradient>
</defs>
</svg>
